<mxfile host="app.diagrams.net" agent="Mozilla/5.0 (Windows NT 10.0; Win64; x64; rv:128.0) Gecko/20100101 Firefox/128.0" version="24.8.8">
  <diagram id="C5RBs43oDa-KdzZeNtuy" name="Page-1">
    <mxGraphModel dx="1050" dy="511" grid="1" gridSize="10" guides="1" tooltips="1" connect="1" arrows="1" fold="1" page="1" pageScale="1" pageWidth="827" pageHeight="1169" math="0" shadow="0">
      <root>
        <mxCell id="WIyWlLk6GJQsqaUBKTNV-0" />
        <mxCell id="WIyWlLk6GJQsqaUBKTNV-1" parent="WIyWlLk6GJQsqaUBKTNV-0" />
        <mxCell id="h5WyUtQVocZnArpi7Omz-7" style="edgeStyle=orthogonalEdgeStyle;rounded=0;orthogonalLoop=1;jettySize=auto;html=1;exitX=0.5;exitY=1;exitDx=0;exitDy=0;entryX=0.5;entryY=0;entryDx=0;entryDy=0;dashed=1;dashPattern=1 1;endArrow=none;endFill=0;startArrow=classic;startFill=1;" parent="WIyWlLk6GJQsqaUBKTNV-1" source="h5WyUtQVocZnArpi7Omz-9" target="h5WyUtQVocZnArpi7Omz-25" edge="1">
          <mxGeometry relative="1" as="geometry">
            <mxPoint x="275" y="325" as="targetPoint" />
          </mxGeometry>
        </mxCell>
        <mxCell id="h5WyUtQVocZnArpi7Omz-15" value="Build-Infos fÃ¼r make" style="edgeLabel;html=1;align=center;verticalAlign=middle;resizable=0;points=[];" parent="h5WyUtQVocZnArpi7Omz-7" vertex="1" connectable="0">
          <mxGeometry x="-0.2889" y="3" relative="1" as="geometry">
            <mxPoint x="-3" y="92" as="offset" />
          </mxGeometry>
        </mxCell>
        <mxCell id="h5WyUtQVocZnArpi7Omz-16" style="edgeStyle=orthogonalEdgeStyle;rounded=0;orthogonalLoop=1;jettySize=auto;html=1;exitX=1;exitY=0.5;exitDx=0;exitDy=0;entryX=0;entryY=0.5;entryDx=0;entryDy=0;" parent="WIyWlLk6GJQsqaUBKTNV-1" source="WIyWlLk6GJQsqaUBKTNV-3" target="h5WyUtQVocZnArpi7Omz-9" edge="1">
          <mxGeometry relative="1" as="geometry" />
        </mxCell>
        <mxCell id="WIyWlLk6GJQsqaUBKTNV-3" value="cmake .." style="rounded=1;whiteSpace=wrap;html=1;fontSize=12;glass=0;strokeWidth=1;shadow=0;" parent="WIyWlLk6GJQsqaUBKTNV-1" vertex="1">
          <mxGeometry x="120" y="195" width="70" height="40" as="geometry" />
        </mxCell>
        <mxCell id="h5WyUtQVocZnArpi7Omz-0" value="&lt;h1 style=&quot;margin-top: 0px;&quot;&gt;C++-Rust Erweiterung: Build Prozess&lt;br&gt;&lt;/h1&gt;&lt;p&gt;Das Rust-Modul exportiert sein Interface mit cbindgen. Mit corrosion wird es via cmake in den C++-Teil eingebunden.&lt;br&gt;&lt;/p&gt;" style="text;html=1;whiteSpace=wrap;overflow=hidden;rounded=0;" parent="WIyWlLk6GJQsqaUBKTNV-1" vertex="1">
          <mxGeometry x="40" y="30" width="730" height="80" as="geometry" />
        </mxCell>
        <mxCell id="h5WyUtQVocZnArpi7Omz-1" value="" style="endArrow=none;html=1;rounded=0;endFill=0;" parent="WIyWlLk6GJQsqaUBKTNV-1" edge="1">
          <mxGeometry width="50" height="50" relative="1" as="geometry">
            <mxPoint x="40" y="525" as="sourcePoint" />
            <mxPoint x="600" y="525" as="targetPoint" />
          </mxGeometry>
        </mxCell>
        <mxCell id="h5WyUtQVocZnArpi7Omz-3" value="" style="endArrow=none;html=1;rounded=0;endFill=0;" parent="WIyWlLk6GJQsqaUBKTNV-1" edge="1">
          <mxGeometry width="50" height="50" relative="1" as="geometry">
            <mxPoint x="40" y="375" as="sourcePoint" />
            <mxPoint x="600" y="375" as="targetPoint" />
          </mxGeometry>
        </mxCell>
        <mxCell id="h5WyUtQVocZnArpi7Omz-4" value="C++-Teil" style="text;html=1;align=center;verticalAlign=middle;whiteSpace=wrap;rounded=0;fontSize=14;" parent="WIyWlLk6GJQsqaUBKTNV-1" vertex="1">
          <mxGeometry x="40" y="250" width="60" height="30" as="geometry" />
        </mxCell>
        <mxCell id="h5WyUtQVocZnArpi7Omz-5" value="Rust-Modul" style="text;html=1;align=center;verticalAlign=middle;whiteSpace=wrap;rounded=0;fontSize=14;" parent="WIyWlLk6GJQsqaUBKTNV-1" vertex="1">
          <mxGeometry x="40" y="435" width="80" height="30" as="geometry" />
        </mxCell>
        <mxCell id="h5WyUtQVocZnArpi7Omz-19" style="edgeStyle=orthogonalEdgeStyle;rounded=0;orthogonalLoop=1;jettySize=auto;html=1;exitX=1;exitY=0.75;exitDx=0;exitDy=0;dashed=1;dashPattern=1 1;" parent="WIyWlLk6GJQsqaUBKTNV-1" source="h5WyUtQVocZnArpi7Omz-9" target="h5WyUtQVocZnArpi7Omz-18" edge="1">
          <mxGeometry relative="1" as="geometry" />
        </mxCell>
        <mxCell id="h5WyUtQVocZnArpi7Omz-29" style="edgeStyle=orthogonalEdgeStyle;rounded=0;orthogonalLoop=1;jettySize=auto;html=1;exitX=1;exitY=0.5;exitDx=0;exitDy=0;entryX=0;entryY=0.5;entryDx=0;entryDy=0;" parent="WIyWlLk6GJQsqaUBKTNV-1" source="h5WyUtQVocZnArpi7Omz-9" target="h5WyUtQVocZnArpi7Omz-27" edge="1">
          <mxGeometry relative="1" as="geometry" />
        </mxCell>
        <mxCell id="h5WyUtQVocZnArpi7Omz-9" value="corrosion import" style="rounded=1;whiteSpace=wrap;html=1;fontSize=12;glass=0;strokeWidth=1;shadow=0;" parent="WIyWlLk6GJQsqaUBKTNV-1" vertex="1">
          <mxGeometry x="240" y="195" width="70" height="40" as="geometry" />
        </mxCell>
        <mxCell id="h5WyUtQVocZnArpi7Omz-28" style="edgeStyle=orthogonalEdgeStyle;rounded=0;orthogonalLoop=1;jettySize=auto;html=1;exitX=1;exitY=0.5;exitDx=0;exitDy=0;exitPerimeter=0;entryX=0.5;entryY=1;entryDx=0;entryDy=0;dashed=1;dashPattern=1 1;" parent="WIyWlLk6GJQsqaUBKTNV-1" source="h5WyUtQVocZnArpi7Omz-18" target="h5WyUtQVocZnArpi7Omz-27" edge="1">
          <mxGeometry relative="1" as="geometry" />
        </mxCell>
        <mxCell id="h5WyUtQVocZnArpi7Omz-18" value="CMakeFiles" style="shape=cylinder3;whiteSpace=wrap;html=1;boundedLbl=1;backgroundOutline=1;size=15;" parent="WIyWlLk6GJQsqaUBKTNV-1" vertex="1">
          <mxGeometry x="320" y="295" width="70" height="50" as="geometry" />
        </mxCell>
        <mxCell id="h5WyUtQVocZnArpi7Omz-21" value="build step" style="rounded=1;whiteSpace=wrap;html=1;" parent="WIyWlLk6GJQsqaUBKTNV-1" vertex="1">
          <mxGeometry x="120" y="129" width="70" height="20" as="geometry" />
        </mxCell>
        <mxCell id="h5WyUtQVocZnArpi7Omz-23" value="build result" style="shape=cylinder3;whiteSpace=wrap;html=1;boundedLbl=1;backgroundOutline=1;size=15;fontSize=10;" parent="WIyWlLk6GJQsqaUBKTNV-1" vertex="1">
          <mxGeometry x="200" y="114" width="60" height="45" as="geometry" />
        </mxCell>
        <mxCell id="h5WyUtQVocZnArpi7Omz-24" value="build input" style="shape=document;whiteSpace=wrap;html=1;boundedLbl=1;" parent="WIyWlLk6GJQsqaUBKTNV-1" vertex="1">
          <mxGeometry x="270" y="119" width="50" height="40" as="geometry" />
        </mxCell>
        <mxCell id="h5WyUtQVocZnArpi7Omz-25" value="Cargo.toml" style="shape=document;whiteSpace=wrap;html=1;boundedLbl=1;" parent="WIyWlLk6GJQsqaUBKTNV-1" vertex="1">
          <mxGeometry x="240" y="425" width="70" height="50" as="geometry" />
        </mxCell>
        <mxCell id="h5WyUtQVocZnArpi7Omz-34" style="edgeStyle=orthogonalEdgeStyle;rounded=0;orthogonalLoop=1;jettySize=auto;html=1;exitX=1;exitY=0.5;exitDx=0;exitDy=0;entryX=0;entryY=0.5;entryDx=0;entryDy=0;" parent="WIyWlLk6GJQsqaUBKTNV-1" source="h5WyUtQVocZnArpi7Omz-27" target="h5WyUtQVocZnArpi7Omz-33" edge="1">
          <mxGeometry relative="1" as="geometry" />
        </mxCell>
        <mxCell id="h5WyUtQVocZnArpi7Omz-45" style="edgeStyle=orthogonalEdgeStyle;rounded=0;orthogonalLoop=1;jettySize=auto;html=1;exitX=0.75;exitY=1;exitDx=0;exitDy=0;entryX=0.5;entryY=0;entryDx=0;entryDy=0;" parent="WIyWlLk6GJQsqaUBKTNV-1" source="h5WyUtQVocZnArpi7Omz-27" target="h5WyUtQVocZnArpi7Omz-43" edge="1">
          <mxGeometry relative="1" as="geometry" />
        </mxCell>
        <mxCell id="h5WyUtQVocZnArpi7Omz-27" value="make" style="rounded=1;whiteSpace=wrap;html=1;" parent="WIyWlLk6GJQsqaUBKTNV-1" vertex="1">
          <mxGeometry x="379" y="195" width="70" height="40" as="geometry" />
        </mxCell>
        <mxCell id="h5WyUtQVocZnArpi7Omz-42" style="edgeStyle=orthogonalEdgeStyle;rounded=0;orthogonalLoop=1;jettySize=auto;html=1;exitX=1;exitY=0.5;exitDx=0;exitDy=0;exitPerimeter=0;entryX=0.75;entryY=1;entryDx=0;entryDy=0;dashed=1;dashPattern=1 1;" parent="WIyWlLk6GJQsqaUBKTNV-1" source="h5WyUtQVocZnArpi7Omz-30" target="h5WyUtQVocZnArpi7Omz-33" edge="1">
          <mxGeometry relative="1" as="geometry">
            <mxPoint x="720" y="385" as="targetPoint" />
          </mxGeometry>
        </mxCell>
        <mxCell id="h5WyUtQVocZnArpi7Omz-30" value="librust_c.a" style="shape=cylinder3;whiteSpace=wrap;html=1;boundedLbl=1;backgroundOutline=1;size=15;" parent="WIyWlLk6GJQsqaUBKTNV-1" vertex="1">
          <mxGeometry x="530" y="425" width="70" height="50" as="geometry" />
        </mxCell>
        <mxCell id="h5WyUtQVocZnArpi7Omz-33" value="linker" style="rounded=1;whiteSpace=wrap;html=1;" parent="WIyWlLk6GJQsqaUBKTNV-1" vertex="1">
          <mxGeometry x="590" y="195" width="70" height="40" as="geometry" />
        </mxCell>
        <mxCell id="h5WyUtQVocZnArpi7Omz-37" value="" style="edgeStyle=orthogonalEdgeStyle;rounded=0;orthogonalLoop=1;jettySize=auto;html=1;exitX=1;exitY=0.75;exitDx=0;exitDy=0;entryX=0.5;entryY=0;entryDx=0;entryDy=0;entryPerimeter=0;dashed=1;dashPattern=1 1;" parent="WIyWlLk6GJQsqaUBKTNV-1" source="h5WyUtQVocZnArpi7Omz-27" target="h5WyUtQVocZnArpi7Omz-35" edge="1">
          <mxGeometry relative="1" as="geometry">
            <mxPoint x="449" y="225" as="sourcePoint" />
            <mxPoint x="475" y="395" as="targetPoint" />
          </mxGeometry>
        </mxCell>
        <mxCell id="h5WyUtQVocZnArpi7Omz-41" style="edgeStyle=orthogonalEdgeStyle;rounded=0;orthogonalLoop=1;jettySize=auto;html=1;exitX=1;exitY=0.5;exitDx=0;exitDy=0;exitPerimeter=0;dashed=1;dashPattern=1 1;entryX=0.5;entryY=1;entryDx=0;entryDy=0;" parent="WIyWlLk6GJQsqaUBKTNV-1" source="h5WyUtQVocZnArpi7Omz-35" edge="1" target="h5WyUtQVocZnArpi7Omz-33">
          <mxGeometry relative="1" as="geometry">
            <mxPoint x="680" y="320" as="targetPoint" />
          </mxGeometry>
        </mxCell>
        <mxCell id="h5WyUtQVocZnArpi7Omz-35" value="object files" style="shape=cylinder3;whiteSpace=wrap;html=1;boundedLbl=1;backgroundOutline=1;size=15;" parent="WIyWlLk6GJQsqaUBKTNV-1" vertex="1">
          <mxGeometry x="530" y="295" width="70" height="50" as="geometry" />
        </mxCell>
        <mxCell id="h5WyUtQVocZnArpi7Omz-39" value="executable" style="shape=cylinder3;whiteSpace=wrap;html=1;boundedLbl=1;backgroundOutline=1;size=15;fontSize=10;" parent="WIyWlLk6GJQsqaUBKTNV-1" vertex="1">
          <mxGeometry x="700" y="340" width="60" height="60" as="geometry" />
        </mxCell>
        <mxCell id="h5WyUtQVocZnArpi7Omz-43" value="cargo build" style="rounded=1;whiteSpace=wrap;html=1;" parent="WIyWlLk6GJQsqaUBKTNV-1" vertex="1">
          <mxGeometry x="379" y="430" width="70" height="40" as="geometry" />
        </mxCell>
        <mxCell id="h5WyUtQVocZnArpi7Omz-44" style="edgeStyle=orthogonalEdgeStyle;rounded=0;orthogonalLoop=1;jettySize=auto;html=1;exitX=1;exitY=0.5;exitDx=0;exitDy=0;entryX=0;entryY=0.5;entryDx=0;entryDy=0;entryPerimeter=0;dashed=1;dashPattern=1 1;" parent="WIyWlLk6GJQsqaUBKTNV-1" source="h5WyUtQVocZnArpi7Omz-43" target="h5WyUtQVocZnArpi7Omz-30" edge="1">
          <mxGeometry relative="1" as="geometry" />
        </mxCell>
        <mxCell id="h5WyUtQVocZnArpi7Omz-47" style="edgeStyle=orthogonalEdgeStyle;rounded=0;orthogonalLoop=1;jettySize=auto;html=1;exitX=0.5;exitY=0;exitDx=0;exitDy=0;entryX=0.5;entryY=1;entryDx=0;entryDy=0;dashed=1;dashPattern=1 1;" parent="WIyWlLk6GJQsqaUBKTNV-1" source="h5WyUtQVocZnArpi7Omz-46" target="WIyWlLk6GJQsqaUBKTNV-3" edge="1">
          <mxGeometry relative="1" as="geometry" />
        </mxCell>
        <mxCell id="h5WyUtQVocZnArpi7Omz-46" value="CMakeLists.txt" style="shape=document;whiteSpace=wrap;html=1;boundedLbl=1;" parent="WIyWlLk6GJQsqaUBKTNV-1" vertex="1">
          <mxGeometry x="110" y="305" width="90" height="50" as="geometry" />
        </mxCell>
        <mxCell id="h5WyUtQVocZnArpi7Omz-48" value="Legende:" style="text;html=1;align=center;verticalAlign=middle;whiteSpace=wrap;rounded=0;" parent="WIyWlLk6GJQsqaUBKTNV-1" vertex="1">
          <mxGeometry x="40" y="124" width="60" height="30" as="geometry" />
        </mxCell>
        <mxCell id="h5WyUtQVocZnArpi7Omz-49" style="edgeStyle=orthogonalEdgeStyle;rounded=0;orthogonalLoop=1;jettySize=auto;html=1;exitX=1;exitY=0.5;exitDx=0;exitDy=0;entryX=0;entryY=0;entryDx=0;entryDy=37.5;entryPerimeter=0;" parent="WIyWlLk6GJQsqaUBKTNV-1" source="h5WyUtQVocZnArpi7Omz-33" target="h5WyUtQVocZnArpi7Omz-39" edge="1">
          <mxGeometry relative="1" as="geometry" />
        </mxCell>
      </root>
    </mxGraphModel>
  </diagram>
</mxfile>
